<svg width="21" height="20" viewBox="0 0 21 20" fill="none" xmlns="http://www.w3.org/2000/svg">
<path d="M10.0063 20C11.8772 20.0026 13.7113 19.4802 15.3002 18.4923C16.889 17.5045 18.1689 16.0907 18.9943 14.4117C19.8197 12.7326 20.1575 10.8558 19.9693 8.99433C19.7812 7.1329 19.0746 5.36158 17.9299 3.8817C16.7852 2.40182 15.2483 1.27275 13.4939 0.622804C11.7395 -0.0271392 9.838 -0.171879 8.00544 0.205031C6.17288 0.581941 4.48281 1.46539 3.12732 2.75495C1.77183 4.04452 0.805291 5.68848 0.337559 7.49999L2.93881 7.49999C3.39719 6.2035 4.2032 5.05798 5.26872 4.18868C6.33423 3.31937 7.61824 2.75975 8.98037 2.57099C10.3425 2.38223 11.7303 2.57159 12.9921 3.11838C14.2538 3.66517 15.341 4.54834 16.1346 5.67132C16.9283 6.79431 17.3979 8.11389 17.4922 9.4858C17.5865 10.8577 17.3018 12.2291 16.6692 13.4501C16.0366 14.6711 15.0805 15.6947 13.9054 16.409C12.7303 17.1232 11.3815 17.5006 10.0063 17.5C9.02271 17.4986 8.04927 17.301 7.1429 16.919C6.23653 16.537 5.41541 15.9781 4.72756 15.275L8.75006 11.25L6.02721e-05 11.25L6.10371e-05 20L2.93881 17.0625C3.86482 17.9941 4.96604 18.7333 6.17902 19.2375C7.39199 19.7416 8.69274 20.0008 10.0063 20V20Z" fill="#10B90C"/>
</svg>
